<svg width="12" height="12" viewBox="0 0 12 12" fill="none" xmlns="http://www.w3.org/2000/svg">
<path d="M10.9333 10.4C10.9333 10.6963 10.6963 10.9333 10.4 10.9333H1.6C1.3037 10.9333 1.06667 10.6963 1.06667 10.4V1.6C1.06667 1.3037 1.3037 1.06667 1.6 1.06667H5.06667V0H1.6C0.711111 0 0 0.711111 0 1.6V10.4C0 11.2889 0.711111 12 1.6 12H10.4C11.2889 12 12 11.2889 12 10.4V6.93333H10.9333V10.4Z" fill="#171E24"/>
<path d="M6.94581 0V1.06404H10.1823L6 5.24631L6.75369 6L10.936 1.81773V5.05419H12V0H6.94581Z" fill="#171E24"/>
</svg>
